<svg width="20" height="20" viewBox="0 0 20 20" fill="none" xmlns="http://www.w3.org/2000/svg">
<path d="M5.23438 9.60938H9.60938V3.35938H11.1719V11.1719H5.23438V9.60938ZM13.4059 17.7469L10.3433 14.8315L9.26605 15.9633L13.4937 19.9876L19.9953 12.7486L18.8329 11.7046L13.4059 17.7469ZM1.5625 10C1.5625 7.82333 2.39166 5.83725 3.75 4.33914V6.71875H5.3125V1.79688H0.390625V3.35938H2.52365C0.892334 5.19119 0 7.52686 0 10C0 12.6711 1.04019 15.1823 2.92892 17.0711C4.81766 18.9598 7.32895 20 10 20C10.3938 20 10.7838 19.9768 11.1693 19.9323L9.58832 18.4273C5.12634 18.212 1.5625 14.5145 1.5625 10ZM18.3977 9.18121L18.7144 9.49799L19.8769 10.5421L19.9796 10.6343C19.9927 10.424 20 10.2126 20 10C20 7.32895 18.9598 4.81766 17.0711 2.92892C15.1823 1.04019 12.6711 0 10 0C9.86938 0 9.73907 0.00259399 9.60938 0.00762937V1.57181C9.73877 1.5657 9.86908 1.5625 10 1.5625C14.3762 1.5625 17.9846 4.9115 18.3977 9.18121Z" fill="#E47829"/>
</svg>
