<svg width="32" height="32" viewBox="0 0 32 32" fill="none" xmlns="http://www.w3.org/2000/svg">
<rect width="32" height="32" rx="16" fill="#FF0F27" fill-opacity="0.2"/>
<path d="M22.793 14.2776H23.2759V14.7605H22.793V14.2776Z" fill="url(#paint0_linear_216_3242)" stroke="url(#paint1_linear_216_3242)" stroke-width="0.1"/>
<path d="M21.8271 14.2776H22.31V14.7605H21.8271V14.2776Z" fill="url(#paint2_linear_216_3242)" stroke="url(#paint3_linear_216_3242)" stroke-width="0.1"/>
<path d="M13.1027 9.20721V9.69011H12.8613C12.4619 9.69011 12.137 10.0151 12.137 10.4145V11.3803C12.137 11.7797 12.4619 12.1046 12.8613 12.1046H13.1027V12.5875H14.5514V11.6217H17.4488V12.5875H18.8975V12.1046H19.139C19.5384 12.1046 19.8633 11.7797 19.8633 11.3803V10.4145C19.8633 10.0151 19.5384 9.69011 19.139 9.69011H18.8975V9.20721H17.4488V10.173H14.5514V9.20721H13.1027ZM12.8613 11.6217C12.7282 11.6217 12.6199 11.5134 12.6199 11.3803V10.4145C12.6199 10.2813 12.7282 10.173 12.8613 10.173H13.1027V11.6217H12.8613ZM14.0685 12.1046H13.5856V9.69011H14.0685V12.1046ZM19.139 10.173C19.2721 10.173 19.3804 10.2813 19.3804 10.4145V11.3803C19.3804 11.5134 19.2721 11.6217 19.139 11.6217H18.8975V10.173H19.139ZM17.9317 9.69011H18.4146V12.1046H17.9317V9.69011ZM17.4488 10.6559V11.1388H14.5514V10.6559H17.4488Z" fill="url(#paint4_linear_216_3242)" stroke="url(#paint5_linear_216_3242)" stroke-width="0.1"/>
<path d="M24.2415 16.2092V13.4675L22.151 10.8974H21.0704V8.72435C21.0704 8.32496 20.7455 8 20.3461 8H11.654C11.2546 8 10.9296 8.32496 10.9296 8.72435V9.4487H11.4125V8.72435C11.4125 8.5912 11.5208 8.4829 11.654 8.4829H20.3461C20.4792 8.4829 20.5875 8.5912 20.5875 8.72435V13.3119H11.4125V9.9316H10.9296V10.8974H9.84902L7.75854 13.4675V16.2092H8.72434V22.5513H8.48289C8.0835 22.5513 7.75854 22.8762 7.75854 23.2756V24H22.3099V23.5171H8.24144V23.2756C8.24144 23.1425 8.34974 23.0342 8.48289 23.0342H23.5172C23.6503 23.0342 23.7586 23.1425 23.7586 23.2756V23.5171H22.7928V24H24.2415V23.2756C24.2415 22.8762 23.9166 22.5513 23.5172 22.5513H23.2757V16.2092H24.2415ZM21.0704 11.3803H21.9214L23.4925 13.3119H21.0705V11.3803H21.0704ZM10.0787 11.3803H10.9296V13.3119H8.50762L10.0787 11.3803ZM8.24144 13.7948H23.7586V15.7263H8.24144V13.7948ZM9.20724 17.7223H12.1368V21.1026H9.20724V17.7223ZM18.1731 22.5513H16.2415V17.7223H18.1731V22.5513ZM15.7586 22.5513H13.827V17.7223H15.7586V22.5513ZM22.7928 21.1026H19.8632V17.7223H22.7928V21.1026ZM22.7928 17.2394H19.3803V21.5855H22.7928V22.5513H18.656V17.2394H13.3441V22.5513H9.20724V21.5855H12.6197V17.2394H9.20724V16.2092H22.7928V17.2394Z" fill="url(#paint6_linear_216_3242)" stroke="url(#paint7_linear_216_3242)" stroke-width="0.1"/>
<defs>
<linearGradient id="paint0_linear_216_3242" x1="22.793" y1="14.2776" x2="23.2759" y2="14.7605" gradientUnits="userSpaceOnUse">
<stop stop-color="#FF0F27"/>
<stop offset="1" stop-color="#E40C5D"/>
</linearGradient>
<linearGradient id="paint1_linear_216_3242" x1="22.793" y1="14.2776" x2="23.2759" y2="14.7605" gradientUnits="userSpaceOnUse">
<stop stop-color="#FF0F27"/>
<stop offset="1" stop-color="#E40C5D"/>
</linearGradient>
<linearGradient id="paint2_linear_216_3242" x1="21.8271" y1="14.2776" x2="22.31" y2="14.7605" gradientUnits="userSpaceOnUse">
<stop stop-color="#FF0F27"/>
<stop offset="1" stop-color="#E40C5D"/>
</linearGradient>
<linearGradient id="paint3_linear_216_3242" x1="21.8271" y1="14.2776" x2="22.31" y2="14.7605" gradientUnits="userSpaceOnUse">
<stop stop-color="#FF0F27"/>
<stop offset="1" stop-color="#E40C5D"/>
</linearGradient>
<linearGradient id="paint4_linear_216_3242" x1="12.137" y1="9.20721" x2="14.6196" y2="14.8817" gradientUnits="userSpaceOnUse">
<stop stop-color="#FF0F27"/>
<stop offset="1" stop-color="#E40C5D"/>
</linearGradient>
<linearGradient id="paint5_linear_216_3242" x1="12.137" y1="9.20721" x2="14.6196" y2="14.8817" gradientUnits="userSpaceOnUse">
<stop stop-color="#FF0F27"/>
<stop offset="1" stop-color="#E40C5D"/>
</linearGradient>
<linearGradient id="paint6_linear_216_3242" x1="7.75854" y1="8" x2="23.7515" y2="24.4757" gradientUnits="userSpaceOnUse">
<stop stop-color="#FF0F27"/>
<stop offset="1" stop-color="#E40C5D"/>
</linearGradient>
<linearGradient id="paint7_linear_216_3242" x1="7.75854" y1="8" x2="23.7515" y2="24.4757" gradientUnits="userSpaceOnUse">
<stop stop-color="#FF0F27"/>
<stop offset="1" stop-color="#E40C5D"/>
</linearGradient>
</defs>
</svg>
