<svg width="14" height="15" viewBox="0 0 14 15" fill="none" xmlns="http://www.w3.org/2000/svg">
<g clip-path="url(#clip0_216_4075)">
<path d="M6.19229 0.483307C5.13798 0.483307 4.29098 1.35938 4.29098 2.41854V2.65385H2.15383C1.85714 2.65385 1.61537 2.89561 1.61537 3.19231V3.73077H1.0769V4.80769H2.15383V12.8846C2.15383 13.7704 2.88344 14.5 3.76921 14.5H10.2308C11.1165 14.5 11.8461 13.7704 11.8461 12.8846V4.80769H12.9231V3.73077H12.3846V3.19231C12.3846 2.89561 12.1428 2.65385 11.8461 2.65385H9.70898V2.418C9.70898 1.35938 8.86198 0.483307 7.80767 0.483307H6.19229ZM6.19229 1.59361H7.80767C8.2406 1.59361 8.59867 1.94685 8.59867 2.418V2.65385H5.40075V2.418C5.40075 1.94685 5.75883 1.59415 6.19175 1.59415L6.19229 1.59361ZM3.23075 4.80769H5.99037C6.05714 4.81469 6.12337 4.82438 6.19229 4.82438H7.80767C7.8766 4.82438 7.94229 4.81469 8.0096 4.80769H10.7692V12.8846C10.7692 13.1878 10.5339 13.4231 10.2308 13.4231H3.76921C3.46606 13.4231 3.23075 13.1878 3.23075 12.8846V4.80769ZM4.30767 5.88461V12.3462H5.3846V5.88461H4.30767ZM6.46152 5.88461V12.3462H7.53844V5.88461H6.46152ZM8.61537 5.88461V12.3462H9.69229V5.88461H8.61537Z" fill="#EB5757"/>
</g>
<defs>
<clipPath id="clip0_216_4075">
<rect width="14" height="14" fill="white" transform="translate(0 0.5)"/>
</clipPath>
</defs>
</svg>
