<svg width="19" height="18" viewBox="0 0 19 18" fill="none" xmlns="http://www.w3.org/2000/svg">
<path d="M6.33332 8.49998H3.16666C2.53677 8.49998 1.93268 8.24976 1.48728 7.80436C1.04188 7.35896 0.791656 6.75487 0.791656 6.12498V2.95831C0.791656 2.32842 1.04188 1.72433 1.48728 1.27893C1.93268 0.833535 2.53677 0.583313 3.16666 0.583313H6.33332C6.96321 0.583313 7.5673 0.833535 8.0127 1.27893C8.4581 1.72433 8.70832 2.32842 8.70832 2.95831V6.12498C8.70832 6.75487 8.4581 7.35896 8.0127 7.80436C7.5673 8.24976 6.96321 8.49998 6.33332 8.49998ZM3.16666 2.16665C2.95669 2.16665 2.75533 2.25005 2.60686 2.39852C2.4584 2.54699 2.37499 2.74835 2.37499 2.95831V6.12498C2.37499 6.33494 2.4584 6.53631 2.60686 6.68477C2.75533 6.83324 2.95669 6.91665 3.16666 6.91665H6.33332C6.54329 6.91665 6.74465 6.83324 6.89312 6.68477C7.04158 6.53631 7.12499 6.33494 7.12499 6.12498V2.95831C7.12499 2.74835 7.04158 2.54699 6.89312 2.39852C6.74465 2.25005 6.54329 2.16665 6.33332 2.16665H3.16666ZM15.8333 8.49998H12.6667C12.0368 8.49998 11.4327 8.24976 10.9873 7.80436C10.5419 7.35896 10.2917 6.75487 10.2917 6.12498V2.95831C10.2917 2.32842 10.5419 1.72433 10.9873 1.27893C11.4327 0.833535 12.0368 0.583313 12.6667 0.583313H15.8333C16.4632 0.583313 17.0673 0.833535 17.5127 1.27893C17.9581 1.72433 18.2083 2.32842 18.2083 2.95831V6.12498C18.2083 6.75487 17.9581 7.35896 17.5127 7.80436C17.0673 8.24976 16.4632 8.49998 15.8333 8.49998ZM12.6667 2.16665C12.4567 2.16665 12.2553 2.25005 12.1069 2.39852C11.9584 2.54699 11.875 2.74835 11.875 2.95831V6.12498C11.875 6.33494 11.9584 6.53631 12.1069 6.68477C12.2553 6.83324 12.4567 6.91665 12.6667 6.91665H15.8333C16.0433 6.91665 16.2447 6.83324 16.3931 6.68477C16.5416 6.53631 16.625 6.33494 16.625 6.12498V2.95831C16.625 2.74835 16.5416 2.54699 16.3931 2.39852C16.2447 2.25005 16.0433 2.16665 15.8333 2.16665H12.6667ZM6.33332 18H3.16666C2.53677 18 1.93268 17.7498 1.48728 17.3044C1.04188 16.859 0.791656 16.2549 0.791656 15.625V12.4583C0.791656 11.8284 1.04188 11.2243 1.48728 10.7789C1.93268 10.3335 2.53677 10.0833 3.16666 10.0833H6.33332C6.96321 10.0833 7.5673 10.3335 8.0127 10.7789C8.4581 11.2243 8.70832 11.8284 8.70832 12.4583V15.625C8.70832 16.2549 8.4581 16.859 8.0127 17.3044C7.5673 17.7498 6.96321 18 6.33332 18ZM3.16666 11.6666C2.95669 11.6666 2.75533 11.7501 2.60686 11.8985C2.4584 12.047 2.37499 12.2484 2.37499 12.4583V15.625C2.37499 15.8349 2.4584 16.0363 2.60686 16.1848C2.75533 16.3332 2.95669 16.4166 3.16666 16.4166H6.33332C6.54329 16.4166 6.74465 16.3332 6.89312 16.1848C7.04158 16.0363 7.12499 15.8349 7.12499 15.625V12.4583C7.12499 12.2484 7.04158 12.047 6.89312 11.8985C6.74465 11.7501 6.54329 11.6666 6.33332 11.6666H3.16666ZM15.8333 18H12.6667C12.0368 18 11.4327 17.7498 10.9873 17.3044C10.5419 16.859 10.2917 16.2549 10.2917 15.625V12.4583C10.2917 11.8284 10.5419 11.2243 10.9873 10.7789C11.4327 10.3335 12.0368 10.0833 12.6667 10.0833H15.8333C16.4632 10.0833 17.0673 10.3335 17.5127 10.7789C17.9581 11.2243 18.2083 11.8284 18.2083 12.4583V15.625C18.2083 16.2549 17.9581 16.859 17.5127 17.3044C17.0673 17.7498 16.4632 18 15.8333 18ZM12.6667 11.6666C12.4567 11.6666 12.2553 11.7501 12.1069 11.8985C11.9584 12.047 11.875 12.2484 11.875 12.4583V15.625C11.875 15.8349 11.9584 16.0363 12.1069 16.1848C12.2553 16.3332 12.4567 16.4166 12.6667 16.4166H15.8333C16.0433 16.4166 16.2447 16.3332 16.3931 16.1848C16.5416 16.0363 16.625 15.8349 16.625 15.625V12.4583C16.625 12.2484 16.5416 12.047 16.3931 11.8985C16.2447 11.7501 16.0433 11.6666 15.8333 11.6666H12.6667Z" fill="#3A3A3C"/>
</svg>
