<svg width="14" height="14" viewBox="0 0 14 14" fill="none" xmlns="http://www.w3.org/2000/svg">
<path d="M9.80501 2.69959L11.3001 4.19398M10.7664 1.38309L6.72376 5.42578C6.51488 5.63437 6.37242 5.90013 6.31434 6.18956L5.94092 8.05878L7.81014 7.68466C8.09956 7.62677 8.36498 7.48489 8.57392 7.27594L12.6166 3.23325C12.7381 3.11177 12.8345 2.96755 12.9002 2.80882C12.966 2.6501 12.9998 2.47997 12.9998 2.30817C12.9998 2.13637 12.966 1.96625 12.9002 1.80752C12.8345 1.64879 12.7381 1.50457 12.6166 1.38309C12.4951 1.26161 12.3509 1.16524 12.1922 1.09949C12.0335 1.03375 11.8633 0.999908 11.6915 0.999908C11.5197 0.999908 11.3496 1.03375 11.1909 1.09949C11.0322 1.16524 10.8879 1.26161 10.7664 1.38309V1.38309Z" stroke="#50B5D4" stroke-width="1.5" stroke-linecap="round" stroke-linejoin="round"/>
<path d="M11.5885 9.47059V11.5883C11.5885 11.9627 11.4398 12.3218 11.175 12.5866C10.9102 12.8513 10.5511 13.0001 10.1767 13.0001H2.4118C2.03737 13.0001 1.67827 12.8513 1.41351 12.5866C1.14874 12.3218 1 11.9627 1 11.5883V3.82339C1 3.44896 1.14874 3.08986 1.41351 2.8251C1.67827 2.56033 2.03737 2.41159 2.4118 2.41159H4.5295" stroke="#50B5D4" stroke-width="1.5" stroke-linecap="round" stroke-linejoin="round"/>
</svg>
