<svg width="32" height="32" viewBox="0 0 32 32" fill="none" xmlns="http://www.w3.org/2000/svg">
<rect width="32" height="32" rx="16" fill="#FF0F27" fill-opacity="0.2"/>
<path fill-rule="evenodd" clip-rule="evenodd" d="M11.75 11C11.5511 11 11.3603 11.079 11.2197 11.2197C11.079 11.3603 11 11.5511 11 11.75V22.25C11 22.4489 11.079 22.6397 11.2197 22.7803C11.3603 22.921 11.5511 23 11.75 23H14.75C15.1642 23 15.5 23.3358 15.5 23.75C15.5 24.1642 15.1642 24.5 14.75 24.5H11.75C11.1533 24.5 10.581 24.2629 10.159 23.841C9.73705 23.419 9.5 22.8467 9.5 22.25V11.75C9.5 11.1533 9.73705 10.581 10.159 10.159C10.581 9.73705 11.1533 9.5 11.75 9.5H14.75C15.1642 9.5 15.5 9.83579 15.5 10.25C15.5 10.6642 15.1642 11 14.75 11H11.75ZM19.4697 12.7197C19.7626 12.4268 20.2374 12.4268 20.5303 12.7197L24.2803 16.4697C24.5732 16.7626 24.5732 17.2374 24.2803 17.5303L20.5303 21.2803C20.2374 21.5732 19.7626 21.5732 19.4697 21.2803C19.1768 20.9874 19.1768 20.5126 19.4697 20.2197L21.9393 17.75H14.75C14.3358 17.75 14 17.4142 14 17C14 16.5858 14.3358 16.25 14.75 16.25H21.9393L19.4697 13.7803C19.1768 13.4874 19.1768 13.0126 19.4697 12.7197Z" fill="url(#paint0_linear_216_3282)"/>
<defs>
<linearGradient id="paint0_linear_216_3282" x1="9.5" y1="9.5" x2="24.5" y2="24.5" gradientUnits="userSpaceOnUse">
<stop stop-color="#FF0F27"/>
<stop offset="1" stop-color="#E40C5D"/>
</linearGradient>
</defs>
</svg>
