<svg width="20" height="23" viewBox="0 0 20 23" fill="none" xmlns="http://www.w3.org/2000/svg">
<path fill-rule="evenodd" clip-rule="evenodd" d="M5.05033 2.08712C6.36309 0.774363 8.14356 0.0368652 10.0001 0.0368652C11.8566 0.0368652 13.6371 0.774363 14.9498 2.08712C16.2626 3.39987 17.0001 5.18035 17.0001 7.03687C17.0001 10.3895 17.7171 12.4715 18.378 13.683C18.7098 14.2913 19.0329 14.6903 19.2573 14.9272C19.3698 15.046 19.4581 15.1247 19.5114 15.169C19.538 15.1912 19.5558 15.2048 19.5635 15.2106C19.5647 15.2115 19.5657 15.2122 19.5664 15.2127C19.9249 15.4589 20.0835 15.9094 19.9572 16.3266C19.8295 16.7484 19.4407 17.0369 19.0001 17.0369H1.00008C0.559411 17.0369 0.170684 16.7484 0.0429858 16.3266C-0.0833568 15.9094 0.0752824 15.4589 0.433767 15.2127C0.434469 15.2122 0.435424 15.2115 0.436625 15.2106C0.444325 15.2048 0.462178 15.1912 0.4888 15.169C0.542016 15.1247 0.6304 15.046 0.742875 14.9272C0.967304 14.6903 1.29039 14.2913 1.62218 13.683C2.28301 12.4715 3.00008 10.3895 3.00008 7.03687C3.00008 5.18035 3.73758 3.39987 5.05033 2.08712ZM0.443875 15.2058C0.443954 15.2058 0.444033 15.2057 0.444112 15.2057C0.444107 15.2057 0.444103 15.2057 0.444099 15.2057L0.443875 15.2058ZM3.1494 15.0369H16.8508C16.7747 14.9122 16.6983 14.7802 16.6222 14.6407C15.783 13.1022 15.0001 10.6842 15.0001 7.03687C15.0001 5.71078 14.4733 4.43901 13.5356 3.50133C12.5979 2.56365 11.3262 2.03687 10.0001 2.03687C8.674 2.03687 7.40223 2.56365 6.46454 3.50133C5.52686 4.43901 5.00008 5.71078 5.00008 7.03687C5.00008 10.6842 4.21715 13.1022 3.37797 14.6407C3.30188 14.7802 3.22549 14.9122 3.1494 15.0369ZM7.76831 19.1719C8.24603 18.8947 8.85796 19.0574 9.13508 19.5351C9.22298 19.6866 9.34916 19.8124 9.50097 19.8999C9.65277 19.9873 9.82489 20.0333 10.0001 20.0333C10.1753 20.0333 10.3474 19.9873 10.4992 19.8999C10.651 19.8124 10.7772 19.6866 10.8651 19.5351C11.1422 19.0574 11.7541 18.8947 12.2318 19.1719C12.7096 19.449 12.8722 20.0609 12.5951 20.5386C12.3314 20.9933 11.9528 21.3706 11.4974 21.6329C11.042 21.8953 10.5256 22.0333 10.0001 22.0333C9.47451 22.0333 8.95816 21.8953 8.50274 21.6329C8.04731 21.3706 7.66879 20.9933 7.40508 20.5386C7.12796 20.0609 7.29058 19.449 7.76831 19.1719Z" fill="url(#paint0_linear_1793_264)"/>
<defs>
<linearGradient id="paint0_linear_1793_264" x1="0" y1="11.0324" x2="20.0002" y2="11.0324" gradientUnits="userSpaceOnUse">
<stop stop-color="#EE722F"/>
<stop offset="1" stop-color="#8760A5"/>
</linearGradient>
</defs>
</svg>
