<svg width="70" height="73" viewBox="0 0 70 73" fill="none" xmlns="http://www.w3.org/2000/svg">
<path d="M62.6085 42.82V36.3349C62.6085 32.1639 59.2147 28.769 55.0426 28.769H48.5575V22.2168C48.5575 20.3297 47.5793 18.623 45.9407 17.6492C44.2665 16.6569 42.2464 16.6202 40.5721 17.5346L38.8298 18.4025V14.8789C38.8298 12.6448 37.5933 10.695 35.6035 9.79245C33.6903 8.92561 31.5124 9.25418 29.9203 10.6496L9.24041 28.769H8.56596C4.39387 28.769 1 32.1639 1 36.3349V64.437C1 68.608 4.39387 72.003 8.56596 72.003H55.0426C59.2147 72.003 62.6085 68.608 62.6085 64.437V57.9519C65.5884 57.9519 68.0128 55.5276 68.0128 52.5477V48.2243C68.0128 45.2444 65.5884 42.82 62.6085 42.82ZM41.5719 19.4499C42.6041 18.8867 43.8255 18.9073 44.8372 19.5082C45.8132 20.0876 46.3958 21.0992 46.3958 22.2168V28.769H22.8829L41.5719 19.4499ZM31.3449 12.2752C32.3047 11.4343 33.5628 11.2408 34.7107 11.7618C35.6564 12.1909 36.6681 13.235 36.6681 14.8789V19.4801L18.0396 28.769H12.5208L31.3449 12.2752ZM60.4468 64.437C60.4468 67.4169 58.0225 69.8413 55.0426 69.8413H8.56596C5.58605 69.8413 3.1617 67.4169 3.1617 64.437V36.3349C3.1617 33.355 5.58605 30.9307 8.56596 30.9307H55.0426C58.0225 30.9307 60.4468 33.355 60.4468 36.3349V42.82H49.6383C44.2341 42.82 44.2341 48.515 44.2341 50.386C44.2341 52.2569 44.2341 57.9519 49.6383 57.9519H60.4468V64.437ZM65.8511 52.5477C65.8511 54.3354 64.3963 55.7902 62.6085 55.7902H49.6383C47.6917 55.7902 46.3958 54.8704 46.3958 50.386C46.3958 45.9015 47.6917 44.9817 49.6383 44.9817H62.6085C64.3963 44.9817 65.8511 46.4365 65.8511 48.2243V52.5477Z" fill="#B9B9B9" stroke="#B9B9B9"/>
<path d="M52.881 46.0626C50.4967 46.0626 48.5576 48.0017 48.5576 50.386C48.5576 52.7704 50.4967 54.7094 52.881 54.7094C55.2654 54.7094 57.2044 52.7704 57.2044 50.386C57.2044 48.0017 55.2654 46.0626 52.881 46.0626ZM52.881 52.5477C51.6888 52.5477 50.7193 51.5782 50.7193 50.386C50.7193 49.1938 51.6888 48.2243 52.881 48.2243C54.0732 48.2243 55.0427 49.1938 55.0427 50.386C55.0427 51.5782 54.0732 52.5477 52.881 52.5477Z" fill="#B9B9B9" stroke="#B9B9B9" stroke-width="0.2"/>
<path d="M53.9989 18.0331L53.3234 18.4385C53.0143 18.6244 52.8186 18.9508 52.8002 19.3096C52.7819 19.6695 52.9429 20.0143 53.2304 20.2305L57.5538 23.4731C57.7451 23.6168 57.9743 23.6892 58.2023 23.6892C58.4109 23.6892 58.6196 23.6287 58.8022 23.5076L58.9924 23.3812C62.9343 20.7526 65.4008 16.4821 65.7305 11.7999H67.1529C67.9008 11.7999 68.5688 11.3535 68.8541 10.6628C69.1276 10.0013 68.9968 9.25122 68.5212 8.72484L63.5861 2.08626C63.0727 1.39559 62.2847 1 61.4254 1H61.4244C60.564 1.00108 59.7771 1.39667 59.2648 2.08842L54.3599 8.69242C53.88 9.22312 53.746 9.98079 54.0227 10.6498C54.3113 11.3481 54.9868 11.7988 55.7423 11.7988H57.2425C57.4187 14.2934 56.1833 16.7221 53.9989 18.0331ZM59.2832 10.7158C59.2778 10.598 59.2529 10.478 59.2054 10.3623L59.1848 10.3126C59.1848 10.3115 59.1838 10.3115 59.1838 10.3105C59.0865 10.0694 58.9103 9.88243 58.6974 9.76678C58.4844 9.65113 58.6974 9.7657 58.6963 9.7657C58.6358 9.73436 58.572 9.70626 58.5071 9.6868C58.3969 9.65221 58.2791 9.64141 58.1624 9.63708H56.3508L61.0007 3.37571C61.1379 3.1898 61.326 3.1617 61.4254 3.1617C61.5249 3.1617 61.7129 3.1898 61.8524 3.37571L66.5087 9.63708H64.6885C64.0919 9.63708 63.6077 10.1202 63.6077 10.7179C63.6077 14.9149 61.607 18.8232 58.2304 21.2778L55.7823 19.4404C58.5007 17.4527 59.8798 14.0632 59.2832 10.7158Z" fill="#B9B9B9" stroke="#B9B9B9"/>
</svg>
