<svg width="81" height="80" viewBox="0 0 81 80" fill="none" xmlns="http://www.w3.org/2000/svg">
<path d="M75.0024 39.9988H5.00016C2.24341 39.9988 0 37.7554 0 34.9987V21.6649C0 18.9081 2.24341 16.6647 5.00016 16.6647H75.0024C77.7592 16.6647 80.0026 18.9081 80.0026 21.6649V34.9987C80.0026 37.7554 77.7592 39.9988 75.0024 39.9988ZM5.00016 19.9982C4.08347 19.9982 3.33344 20.7449 3.33344 21.6649V34.9987C3.33344 35.9187 4.08347 36.6654 5.00016 36.6654H75.0024C75.9191 36.6654 76.6691 35.9187 76.6691 34.9987V21.6649C76.6691 20.7449 75.9191 19.9982 75.0024 19.9982H5.00016Z" fill="#B9B9B9"/>
<path d="M65.0037 80H15.0021C10.4052 80 6.66846 76.2599 6.66846 71.6664V38.332C6.66846 37.412 7.41515 36.6653 8.33518 36.6653C9.25521 36.6653 10.0019 37.412 10.0019 38.332V71.6664C10.0019 74.4232 12.2453 76.6666 15.0021 76.6666H65.0037C67.7604 76.6666 70.0038 74.4232 70.0038 71.6664V38.332C70.0038 37.412 70.7505 36.6653 71.6706 36.6653C72.5906 36.6653 73.3373 37.412 73.3373 38.332V71.6664C73.3373 76.2599 69.6005 80 65.0037 80Z" fill="#B9B9B9"/>
<path d="M40.0027 80C39.0826 80 38.3359 79.2533 38.3359 78.3333V38.332C38.3359 37.412 39.0826 36.6653 40.0027 36.6653C40.9227 36.6653 41.6694 37.412 41.6694 38.332V78.3333C41.6694 79.2533 40.9227 80 40.0027 80Z" fill="#B9B9B9"/>
<path d="M40.0029 19.9981C39.8829 19.9981 39.7629 19.9848 39.6429 19.9581C37.5428 19.4915 26.9191 17.0281 24.1124 14.2213C22.5356 12.6512 21.6689 10.5578 21.6689 8.3311C21.6689 6.10436 22.5356 4.01096 24.109 2.43758C27.3591 -0.812526 32.646 -0.812526 35.8927 2.43758C38.6995 5.241 41.1629 15.868 41.6296 17.9714C41.7529 18.5281 41.5829 19.1081 41.1796 19.5081C40.8662 19.8248 40.4396 19.9981 40.0029 19.9981ZM30.0025 3.33427C28.7225 3.33427 27.4391 3.82096 26.4658 4.79432C25.5224 5.74102 25.0024 6.99439 25.0024 8.3311C25.0024 9.66781 25.5224 10.9212 26.4658 11.8679C27.7625 13.1646 33.1827 14.9146 37.7495 16.0814C36.5794 11.5145 34.8327 6.09436 33.536 4.79766C32.566 3.82096 31.2826 3.33427 30.0025 3.33427Z" fill="#B9B9B9"/>
<path d="M40.0025 19.998C39.5659 19.998 39.1392 19.8246 38.8225 19.5113C38.4191 19.108 38.2491 18.5279 38.3725 17.9746C38.8392 15.8712 41.3026 5.24751 44.1093 2.44075C47.3594 -0.812685 52.6463 -0.806018 55.893 2.44075C57.4698 4.0108 58.3365 6.10421 58.3365 8.33094C58.3365 10.5577 57.4698 12.6511 55.8964 14.2245C53.0896 17.0312 42.4659 19.4946 40.3659 19.9613C40.2425 19.9847 40.1225 19.998 40.0025 19.998ZM50.0029 3.33412C48.7228 3.33412 47.4394 3.8208 46.4661 4.79416C45.1694 6.09087 43.4226 11.511 42.2526 16.0779C46.8194 14.9112 52.2396 13.1611 53.5363 11.8644C54.483 10.921 55.003 9.66765 55.003 8.33094C55.003 6.99423 54.483 5.74086 53.5396 4.79416C52.5663 3.8208 51.2829 3.33412 50.0029 3.33412ZM45.2894 3.61746H45.3227H45.2894Z" fill="#B9B9B9"/>
</svg>
