<svg width="20" height="20" viewBox="0 0 20 20" fill="none" xmlns="http://www.w3.org/2000/svg">
<path d="M7.75869 18.4377C7.8052 18.446 7.71305 18.4377 7.75869 18.4377V18.4377ZM20 14.7268C20 17.6345 17.6313 20 14.7198 20C7.72451 19.7349 7.72643 9.71768 14.7199 9.45367C17.6313 9.45367 20 11.8192 20 14.7268ZM18.4355 14.7268C18.4355 12.6807 16.7686 11.0161 14.7198 11.0161C9.7972 11.2026 9.79853 18.2518 14.7198 18.4376C16.7686 18.4376 18.4355 16.7729 18.4355 14.7268ZM9.26359 1.56345C13.0346 1.56345 16.2389 4.24804 16.8825 7.94691C16.9565 8.37197 17.3617 8.6566 17.7872 8.58282C18.2128 8.50891 18.4979 8.10444 18.424 7.67935C17.7355 3.3457 13.6652 -0.0694698 9.26355 0.0010734C-2.13441 0.388319 -3.4518 16.157 7.75869 18.4377C8.70432 18.4156 8.83007 17.0787 7.89532 16.8874C-1.28891 15.0191 -0.122806 1.79215 9.26359 1.56345ZM15.8261 14.7268L16.4463 14.1075C16.7518 13.8024 16.7518 13.3077 16.4463 13.0026C16.1408 12.6976 15.6455 12.6976 15.34 13.0026L14.7198 13.622L14.0996 13.0026C13.7941 12.6976 13.2988 12.6976 12.9933 13.0026C12.6878 13.3077 12.6878 13.8024 12.9933 14.1075L13.6135 14.7268L12.9933 15.3462C12.4995 15.832 12.8623 16.6873 13.5465 16.6798C13.7466 16.6798 13.9469 16.6035 14.0996 16.451L14.7198 15.8317L15.34 16.451C16.0956 17.1606 17.1522 16.0982 16.4463 15.3462C16.4463 15.3462 15.8261 14.7268 15.8261 14.7268ZM10.4174 9.25837C10.4185 9.91619 9.87078 10.4494 9.21208 10.4294L6.93772 12.6664C6.78534 12.8162 6.58704 12.891 6.38885 12.891C5.70196 12.8984 5.34025 12.0372 5.83991 11.5532L8.07492 9.35493C8.04124 8.98264 8.19887 8.61696 8.46178 8.38521V4.25863C8.46178 3.82716 8.812 3.47742 9.24403 3.47742C9.67607 3.47742 10.0263 3.82716 10.0263 4.25863V8.38517C10.2663 8.59973 10.4174 8.91136 10.4174 9.25837Z" fill="#B31A1A"/>
</svg>
