<svg width="32" height="32" viewBox="0 0 32 32" fill="none" xmlns="http://www.w3.org/2000/svg">
<rect width="32" height="32" rx="16" fill="#FF0F27" fill-opacity="0.2"/>
<path d="M16.0004 24.4672C17.6593 23.7037 19.3165 22.5419 20.5508 21.0896C21.6234 19.8272 22.3742 18.3477 22.5187 16.7265L23.0878 10.3475C22.0112 10.1611 19.0313 9.50222 16.0005 7.57061C12.9698 9.50222 9.9897 10.161 8.91324 10.3475L9.48236 16.7265C9.62686 18.348 10.3777 19.8273 11.4503 21.0896C12.6844 22.5419 14.3422 23.7037 16.0007 24.4672H16.0004ZM13.1977 15.9277C13.0417 15.7419 13.0664 15.4646 13.2529 15.3085C13.4388 15.1532 13.7161 15.1773 13.8721 15.3638L15.4206 17.2114L18.2342 13.3689C18.3775 13.1733 18.6526 13.1307 18.8482 13.2739C19.0438 13.4172 19.0858 13.6923 18.9425 13.8879L15.8078 18.1688C15.7853 18.2016 15.7577 18.2326 15.7255 18.2598C15.5396 18.4151 15.2623 18.391 15.1063 18.2045L13.1977 15.927L13.1977 15.9277ZM21.221 21.657C19.8516 23.2688 18.0045 24.542 16.1777 25.3522C16.069 25.4 15.9412 25.404 15.8233 25.3522C13.9959 24.542 12.1487 23.2687 10.7801 21.657C9.59936 20.2674 8.77137 18.624 8.60906 16.8025L8.00661 10.0494L8.00313 10.027C7.97437 9.78587 8.14695 9.56726 8.38803 9.53849C8.399 9.53728 12.0654 9.11732 15.7538 6.68627C15.8959 6.58954 16.0881 6.58218 16.2412 6.68279C19.9319 9.11733 23.6025 9.5373 23.6127 9.5385V9.53971C23.8469 9.56727 24.0184 9.77624 23.9983 10.0127L23.3924 16.802C23.2301 18.6237 22.4021 20.267 21.2214 21.6565L21.221 21.657Z" fill="url(#paint0_linear_216_3262)" stroke="#FF0F27" stroke-width="0.5"/>
<defs>
<linearGradient id="paint0_linear_216_3262" x1="8" y1="6.61047" x2="26.5408" y2="22.4073" gradientUnits="userSpaceOnUse">
<stop stop-color="#FF0F27"/>
<stop offset="1" stop-color="#E40C5D"/>
</linearGradient>
</defs>
</svg>
