<svg width="32" height="32" viewBox="0 0 32 32" fill="none" xmlns="http://www.w3.org/2000/svg">
<rect width="32" height="32" rx="16" fill="#FF0F27" fill-opacity="0.2"/>
<path d="M23.8749 15.9997H8.12454C7.50427 15.9997 6.99951 15.4949 6.99951 14.8747V11.8746C6.99951 11.2543 7.50427 10.7496 8.12454 10.7496H23.8749C24.4952 10.7496 25 11.2543 25 11.8746V14.8747C25 15.4949 24.4952 15.9997 23.8749 15.9997ZM8.12454 11.4996C7.91828 11.4996 7.74953 11.6676 7.74953 11.8746V14.8747C7.74953 15.0817 7.91828 15.2497 8.12454 15.2497H23.8749C24.0812 15.2497 24.2499 15.0817 24.2499 14.8747V11.8746C24.2499 11.6676 24.0812 11.4996 23.8749 11.4996H8.12454Z" fill="url(#paint0_linear_216_3252)" stroke="url(#paint1_linear_216_3252)" stroke-width="0.2"/>
<path d="M21.6248 24.9999H10.3746C9.34028 24.9999 8.49951 24.1584 8.49951 23.1249V15.6247C8.49951 15.4177 8.66752 15.2497 8.87452 15.2497C9.08153 15.2497 9.24953 15.4177 9.24953 15.6247V23.1249C9.24953 23.7452 9.75429 24.2499 10.3746 24.2499H21.6248C22.2451 24.2499 22.7499 23.7452 22.7499 23.1249V15.6247C22.7499 15.4177 22.9179 15.2497 23.1249 15.2497C23.3319 15.2497 23.4999 15.4177 23.4999 15.6247V23.1249C23.4999 24.1584 22.6591 24.9999 21.6248 24.9999Z" fill="url(#paint2_linear_216_3252)" stroke="url(#paint3_linear_216_3252)" stroke-width="0.2"/>
<path d="M16 24.9999C15.793 24.9999 15.625 24.8319 15.625 24.6249V15.6247C15.625 15.4177 15.793 15.2497 16 15.2497C16.207 15.2497 16.375 15.4177 16.375 15.6247V24.6249C16.375 24.8319 16.207 24.9999 16 24.9999Z" fill="url(#paint4_linear_216_3252)" stroke="url(#paint5_linear_216_3252)" stroke-width="0.2"/>
<path d="M15.9996 11.4996C15.9726 11.4996 15.9456 11.4966 15.9186 11.4906C15.4461 11.3856 13.0558 10.8313 12.4243 10.1998C12.0695 9.84657 11.8745 9.37556 11.8745 8.87454C11.8745 8.37353 12.0695 7.90252 12.4235 7.54851C13.1548 6.81724 14.3443 6.81724 15.0748 7.54851C15.7064 8.17928 16.2606 10.5703 16.3656 11.0436C16.3934 11.1689 16.3551 11.2994 16.2644 11.3894C16.1939 11.4606 16.0979 11.4996 15.9996 11.4996ZM13.7496 7.75027C13.4616 7.75027 13.1728 7.85977 12.9538 8.07878C12.7415 8.29178 12.6245 8.57379 12.6245 8.87454C12.6245 9.1753 12.7415 9.45731 12.9538 9.67031C13.2455 9.96207 14.4651 10.3558 15.4926 10.6183C15.2293 9.59081 14.8363 8.37128 14.5446 8.07953C14.3263 7.85977 14.0376 7.75027 13.7496 7.75027Z" fill="url(#paint6_linear_216_3252)" stroke="url(#paint7_linear_216_3252)" stroke-width="0.2"/>
<path d="M16.0002 11.4996C15.9019 11.4996 15.8059 11.4606 15.7346 11.3901C15.6439 11.2993 15.6056 11.1688 15.6334 11.0443C15.7384 10.5711 16.2927 8.18076 16.9242 7.54924C17.6554 6.81723 18.845 6.81873 19.5755 7.54924C19.9302 7.9025 20.1253 8.37352 20.1253 8.87453C20.1253 9.37554 19.9302 9.84655 19.5762 10.2006C18.9447 10.8321 16.5544 11.3863 16.0819 11.4913C16.0542 11.4966 16.0272 11.4996 16.0002 11.4996ZM18.2502 7.75025C17.9622 7.75025 17.6734 7.85975 17.4544 8.07876C17.1627 8.37051 16.7697 9.59004 16.5064 10.6176C17.5339 10.3551 18.7535 9.9613 19.0452 9.66955C19.2582 9.45729 19.3752 9.17528 19.3752 8.87453C19.3752 8.57377 19.2582 8.29176 19.046 8.07876C18.827 7.85975 18.5382 7.75025 18.2502 7.75025ZM17.1897 7.814H17.1972H17.1897Z" fill="url(#paint8_linear_216_3252)" stroke="url(#paint9_linear_216_3252)" stroke-width="0.2"/>
<defs>
<linearGradient id="paint0_linear_216_3252" x1="6.99951" y1="10.7496" x2="9.82198" y2="20.4266" gradientUnits="userSpaceOnUse">
<stop stop-color="#FF0F27"/>
<stop offset="1" stop-color="#E40C5D"/>
</linearGradient>
<linearGradient id="paint1_linear_216_3252" x1="6.99951" y1="10.7496" x2="9.82198" y2="20.4266" gradientUnits="userSpaceOnUse">
<stop stop-color="#FF0F27"/>
<stop offset="1" stop-color="#E40C5D"/>
</linearGradient>
<linearGradient id="paint2_linear_216_3252" x1="8.49951" y1="15.2497" x2="17.4101" y2="28.9583" gradientUnits="userSpaceOnUse">
<stop stop-color="#FF0F27"/>
<stop offset="1" stop-color="#E40C5D"/>
</linearGradient>
<linearGradient id="paint3_linear_216_3252" x1="8.49951" y1="15.2497" x2="17.4101" y2="28.9583" gradientUnits="userSpaceOnUse">
<stop stop-color="#FF0F27"/>
<stop offset="1" stop-color="#E40C5D"/>
</linearGradient>
<linearGradient id="paint4_linear_216_3252" x1="15.625" y1="15.2497" x2="17.1162" y2="15.3644" gradientUnits="userSpaceOnUse">
<stop stop-color="#FF0F27"/>
<stop offset="1" stop-color="#E40C5D"/>
</linearGradient>
<linearGradient id="paint5_linear_216_3252" x1="15.625" y1="15.2497" x2="17.1162" y2="15.3644" gradientUnits="userSpaceOnUse">
<stop stop-color="#FF0F27"/>
<stop offset="1" stop-color="#E40C5D"/>
</linearGradient>
<linearGradient id="paint6_linear_216_3252" x1="11.8745" y1="7.00006" x2="16.3741" y2="11.5001" gradientUnits="userSpaceOnUse">
<stop stop-color="#FF0F27"/>
<stop offset="1" stop-color="#E40C5D"/>
</linearGradient>
<linearGradient id="paint7_linear_216_3252" x1="11.8745" y1="7.00006" x2="16.3741" y2="11.5001" gradientUnits="userSpaceOnUse">
<stop stop-color="#FF0F27"/>
<stop offset="1" stop-color="#E40C5D"/>
</linearGradient>
<linearGradient id="paint8_linear_216_3252" x1="15.6245" y1="7.00079" x2="20.1233" y2="11.5015" gradientUnits="userSpaceOnUse">
<stop stop-color="#FF0F27"/>
<stop offset="1" stop-color="#E40C5D"/>
</linearGradient>
<linearGradient id="paint9_linear_216_3252" x1="15.6245" y1="7.00079" x2="20.1233" y2="11.5015" gradientUnits="userSpaceOnUse">
<stop stop-color="#FF0F27"/>
<stop offset="1" stop-color="#E40C5D"/>
</linearGradient>
</defs>
</svg>
