<svg width="25" height="24" viewBox="0 0 25 24" fill="none" xmlns="http://www.w3.org/2000/svg">
<path fill-rule="evenodd" clip-rule="evenodd" d="M22.1467 19.1386C23.6255 17.1438 24.5 14.674 24.5 12.0001C24.5 5.37259 19.1273 6.10352e-05 12.5 6.10352e-05C5.87253 6.10352e-05 0.5 5.37259 0.5 12.0001C0.5 18.6274 5.87253 24.0001 12.5 24.0001C15.9771 24.0001 19.1087 22.5212 21.3005 20.1581C21.6006 19.8343 21.8833 19.4941 22.1467 19.1386ZM21.4813 18.0001C22.63 16.2839 23.2999 14.2202 23.2999 12.0001C23.2999 6.03539 18.4647 1.20004 12.4999 1.20004C6.53533 1.20004 1.69997 6.03539 1.69997 12.0001C1.69997 14.2203 2.36986 16.2839 3.51868 18.0001C4.96799 15.8349 7.17951 14.223 9.76941 13.5483C8.51891 12.6817 7.69997 11.2366 7.69997 9.59998C7.69997 6.94905 9.84906 4.79996 12.5 4.79996C15.1509 4.79996 17.3 6.94905 17.3 9.59998C17.3 11.2365 16.481 12.6817 15.2306 13.5481C17.8204 14.223 20.032 15.8348 21.4813 18.0001ZM20.7084 19.0191C19.0243 16.2497 15.9782 14.4 12.5001 14.4C9.0219 14.4 5.97574 16.2497 4.29165 19.0192C6.27244 21.3334 9.21489 22.8001 12.5 22.8001C15.7851 22.8001 18.7276 21.3333 20.7084 19.0191ZM12.5 13.2C14.4883 13.2 16.1 11.5884 16.1 9.59998C16.1 7.61172 14.4884 5.99993 12.5 5.99993C10.5116 5.99993 8.89995 7.61185 8.89995 9.60011C8.89995 11.5884 10.5117 13.2 12.5 13.2Z" fill="#3A3A3C"/>
</svg>
