<svg width="23" height="22" viewBox="0 0 23 22" fill="none" xmlns="http://www.w3.org/2000/svg">
<path d="M21.6538 10.1544H15.7308C13.8743 10.1544 12.3462 11.6825 12.3462 13.539C12.3462 15.3954 13.8743 16.9236 15.7308 16.9236H19.1154V19.4621C19.1154 19.9266 18.7338 20.3082 18.2692 20.3082H4.73077C3.338 20.3082 2.19231 19.1625 2.19231 17.7698V5.07745C2.19231 3.68468 3.338 2.53899 4.73077 2.53899H6.42308C6.88762 2.53899 7.26923 2.15737 7.26923 1.69283C7.26923 1.2283 6.88762 0.84668 6.42308 0.84668H4.73077C2.40977 0.84668 0.5 2.75645 0.5 5.07745V17.7698C0.5 20.0908 2.40977 22.0005 4.73077 22.0005H18.2692C19.662 22.0005 20.8077 20.8548 20.8077 19.4621V16.9236H21.6538C22.1184 16.9236 22.5 16.542 22.5 16.0774V11.0005C22.5 10.536 22.1184 10.1544 21.6538 10.1544ZM20.8077 15.2313H15.7308C14.8025 15.2313 14.0385 14.4672 14.0385 13.539C14.0385 12.6108 14.8025 11.8467 15.7308 11.8467H20.8077V15.2313Z" fill="#3A3A3C"/>
<path d="M4.42619 4.29056C3.48188 4.70264 3.79411 5.92364 4.7308 5.92364H18.2693C18.7338 5.92364 19.1154 6.30526 19.1154 6.76979V7.61595C19.1154 8.08049 19.497 8.4621 19.9616 8.4621C20.4261 8.4621 20.8077 8.08049 20.8077 7.61595V6.76979C20.8069 6.0971 20.5395 5.45149 20.0631 4.97595C19.5876 4.49956 18.942 4.23218 18.2693 4.23133H17.9985L16.5177 0.533641C16.346 0.106333 15.8552 -0.106898 15.4262 0.0597946L4.42619 4.29056ZM16.1708 4.23133H9.29157L15.257 1.93826L16.1708 4.23133Z" fill="#3A3A3C"/>
</svg>
