<svg width="32" height="32" viewBox="0 0 32 32" fill="none" xmlns="http://www.w3.org/2000/svg">
<rect width="32" height="32" rx="16" fill="#FF0F27" fill-opacity="0.2"/>
<path d="M14.2068 10.8316H19.7471C20.0236 10.8316 20.2469 10.6083 20.2469 10.3318C20.2469 10.0553 20.02 9.83197 19.7471 9.83197H14.2068C13.9304 9.83197 13.707 10.0553 13.707 10.3318C13.707 10.6083 13.9303 10.8316 14.2068 10.8316Z" fill="url(#paint0_linear_216_3268)"/>
<path d="M11.4952 13.6638H19.7438C20.0203 13.6638 20.2436 13.4405 20.2436 13.164C20.2436 12.8875 20.0203 12.6642 19.7438 12.6642H11.4952C11.2187 12.6642 10.9954 12.8875 10.9954 13.164C10.9954 13.4405 11.2187 13.6638 11.4952 13.6638Z" fill="url(#paint1_linear_216_3268)"/>
<path d="M11.4952 16.4996H19.7438C20.0203 16.4996 20.2436 16.2762 20.2436 15.9997C20.2436 15.7233 20.0203 15.4999 19.7438 15.4999H11.4952C11.2187 15.4999 10.9954 15.7233 10.9954 15.9997C10.9954 16.2762 11.2187 16.4996 11.4952 16.4996Z" fill="url(#paint2_linear_216_3268)"/>
<path d="M16.1316 18.3323H11.4952C11.2187 18.3323 10.9954 18.5556 10.9954 18.8321C10.9954 19.1086 11.2187 19.3319 11.4952 19.3319H16.128C16.4045 19.3319 16.6278 19.1086 16.6278 18.8321C16.6313 18.5556 16.408 18.3323 16.1316 18.3323Z" fill="url(#paint3_linear_216_3268)"/>
<path d="M16.1316 21.1645H11.4952C11.2187 21.1645 10.9954 21.3878 10.9954 21.6643C10.9954 21.9408 11.2187 22.1641 11.4952 22.1641H16.128C16.4045 22.1641 16.6278 21.9408 16.6278 21.6643C16.6313 21.3878 16.408 21.1645 16.1316 21.1645Z" fill="url(#paint4_linear_216_3268)"/>
<path d="M26.631 13.8732L25.9221 13.1642C25.3762 12.6715 24.685 12.675 24.1533 13.1642L22.2427 15.0748V8.49942C22.2427 7.67352 21.5692 7 20.7433 7H12.7889C12.3883 7 12.0091 7.15597 11.7255 7.43953L9.43562 9.72939C9.15204 10.013 8.99609 10.3887 8.99609 10.7893V23.5006C8.99609 24.3265 9.66958 25 10.4955 25H20.7431C21.569 25 22.2426 24.3265 22.2426 23.5006V20.0267L26.6274 15.6418C27.1414 15.1136 27.1166 14.3409 26.631 13.873L26.631 13.8732ZM11.8708 8.70852V9.87471H10.7046L11.8708 8.70852ZM21.2466 23.5005C21.2466 23.777 21.0233 24.0003 20.7468 24.0003H10.4956C10.2192 24.0003 9.99584 23.777 9.99584 23.5005V10.8744H12.3708C12.6473 10.8744 12.8706 10.6511 12.8706 10.3746V7.99965H20.7433C21.0198 7.99965 21.2431 8.22296 21.2431 8.49945V16.0743L17.7763 19.5446C17.6842 19.6368 17.631 19.7644 17.631 19.8991V21.6679C17.631 21.9444 17.8543 22.1677 18.1308 22.1677H19.8996C20.0308 22.1677 20.1584 22.1146 20.2541 22.0224L21.2466 21.0299L21.2466 23.5005ZM19.6905 21.1645H18.6306V20.1047L23.5117 15.22L24.5716 16.2799L19.6905 21.1645ZM25.922 14.933L25.2804 15.5746L24.2206 14.5147L24.8622 13.8731C24.9898 13.7703 25.1068 13.781 25.2167 13.8731L25.9221 14.5785C26.0142 14.6459 26.032 14.8444 25.9221 14.933L25.922 14.933Z" fill="url(#paint5_linear_216_3268)"/>
<defs>
<linearGradient id="paint0_linear_216_3268" x1="13.707" y1="9.83197" x2="14.0056" y2="11.7856" gradientUnits="userSpaceOnUse">
<stop stop-color="#FF0F27"/>
<stop offset="1" stop-color="#E40C5D"/>
</linearGradient>
<linearGradient id="paint1_linear_216_3268" x1="10.9954" y1="12.6642" x2="11.209" y2="14.6403" gradientUnits="userSpaceOnUse">
<stop stop-color="#FF0F27"/>
<stop offset="1" stop-color="#E40C5D"/>
</linearGradient>
<linearGradient id="paint2_linear_216_3268" x1="10.9954" y1="15.4999" x2="11.209" y2="17.4761" gradientUnits="userSpaceOnUse">
<stop stop-color="#FF0F27"/>
<stop offset="1" stop-color="#E40C5D"/>
</linearGradient>
<linearGradient id="paint3_linear_216_3268" x1="10.9954" y1="18.3323" x2="11.3393" y2="20.2705" gradientUnits="userSpaceOnUse">
<stop stop-color="#FF0F27"/>
<stop offset="1" stop-color="#E40C5D"/>
</linearGradient>
<linearGradient id="paint4_linear_216_3268" x1="10.9954" y1="21.1645" x2="11.3393" y2="23.1027" gradientUnits="userSpaceOnUse">
<stop stop-color="#FF0F27"/>
<stop offset="1" stop-color="#E40C5D"/>
</linearGradient>
<linearGradient id="paint5_linear_216_3268" x1="8.99609" y1="7" x2="26.9961" y2="25.008" gradientUnits="userSpaceOnUse">
<stop stop-color="#FF0F27"/>
<stop offset="1" stop-color="#E40C5D"/>
</linearGradient>
</defs>
</svg>
