<svg width="32" height="32" viewBox="0 0 32 32" fill="none" xmlns="http://www.w3.org/2000/svg">
<rect width="32" height="32" rx="16" fill="#FF0F27" fill-opacity="0.2"/>
<path d="M16 7C11.0295 7 7 11.0295 7 16C7 20.9705 11.0295 25 16 25C20.9705 25 25 20.9705 25 16C24.9944 11.0318 20.9682 7.00557 16 7ZM23.7837 19.1529L21.2242 19.5946C21.5172 18.5201 21.6754 17.4134 21.6952 16.3H24.3925C24.3587 17.2794 24.1526 18.2452 23.7837 19.1529V19.1529ZM7.60747 16.3H10.3048C10.3246 17.4134 10.4828 18.5201 10.7758 19.5946L8.21626 19.1529C7.84741 18.2452 7.64131 17.2794 7.60747 16.3ZM8.21626 12.8471L10.7758 12.4054C10.4828 13.4799 10.3246 14.5866 10.3048 15.7H7.60747C7.64131 14.7206 7.84741 13.7548 8.21626 12.8471ZM16.3 11.8168C17.378 11.8306 18.4533 11.9288 19.5161 12.1105L20.575 12.2932C20.9003 13.4003 21.0754 14.5461 21.0955 15.7H16.3V11.8168ZM19.6183 11.5192C18.5219 11.3318 17.4123 11.2306 16.3 11.2168V7.61685C18.0199 7.78208 19.5139 9.35679 20.3605 11.6485L19.6183 11.5192ZM15.7 11.2168C14.5877 11.2306 13.4784 11.3318 12.382 11.5192L11.6395 11.6477C12.4861 9.35532 13.9801 7.78003 15.7 7.61553V11.2168ZM12.4842 12.1105C13.5468 11.9288 14.622 11.8306 15.7 11.8168V15.7H10.9045C10.9246 14.5461 11.0997 13.4003 11.425 12.2932L12.4842 12.1105ZM10.9045 16.3H15.7V20.1832C14.622 20.1694 13.5467 20.0712 12.4839 19.8895L11.425 19.7068C11.0997 18.5997 10.9246 17.4539 10.9045 16.3V16.3ZM12.3817 20.4808C13.4781 20.6685 14.5876 20.7701 15.7 20.7848V24.3848C13.9801 24.2194 12.4861 22.6447 11.6395 20.3529L12.3817 20.4808ZM16.3 20.7848C17.4123 20.7701 18.5216 20.6685 19.618 20.4808L20.3605 20.3523C19.5139 22.6447 18.0199 24.22 16.3 24.3845V20.7848ZM19.5158 19.8895C18.4532 20.0712 17.378 20.1694 16.3 20.1832V16.3H21.0955C21.0754 17.4539 20.9003 18.5997 20.575 19.7068L19.5158 19.8895ZM21.6952 15.7C21.6754 14.5866 21.5172 13.4799 21.2242 12.4054L23.7837 12.8471C24.1526 13.7548 24.3587 14.7206 24.3925 15.7H21.6952ZM23.4802 12.1858L21.0268 11.7625C20.5857 10.3236 19.7605 9.03218 18.6399 8.02744C20.7354 8.72676 22.4731 10.2196 23.4802 12.1858ZM13.3601 8.02744C12.2395 9.03218 11.4143 10.3236 10.9732 11.7625L8.51978 12.1858C9.52686 10.2196 11.2646 8.72676 13.3601 8.02744ZM8.51978 19.8142L10.9732 20.2375C11.4143 21.6764 12.2395 22.9678 13.3601 23.9726C11.2646 23.2732 9.52686 21.7804 8.51978 19.8142ZM18.6399 23.9726C19.7605 22.9678 20.5857 21.6764 21.0268 20.2375L23.4802 19.8142C22.4731 21.7804 20.7354 23.2732 18.6399 23.9726Z" fill="url(#paint0_linear_216_3235)" stroke="url(#paint1_linear_216_3235)" stroke-width="0.2"/>
<defs>
<linearGradient id="paint0_linear_216_3235" x1="7" y1="7" x2="25" y2="25" gradientUnits="userSpaceOnUse">
<stop stop-color="#FF0F27"/>
<stop offset="1" stop-color="#E40C5D"/>
</linearGradient>
<linearGradient id="paint1_linear_216_3235" x1="7" y1="7" x2="25" y2="25" gradientUnits="userSpaceOnUse">
<stop stop-color="#FF0F27"/>
<stop offset="1" stop-color="#E40C5D"/>
</linearGradient>
</defs>
</svg>
